<mxfile host="app.diagrams.net" modified="2024-06-20T10:40:15.100Z" agent="Mozilla/5.0 (Windows NT 10.0; Win64; x64; rv:127.0) Gecko/20100101 Firefox/127.0" version="24.5.5" etag="hnOz2QS1_iDiP44x2GtN" type="github">
  <diagram name="Page-1" id="MFuQU92PDLdB_bvO-hy7">
    <mxGraphModel>
      <root>
        <mxCell id="0" />
        <mxCell id="1" parent="0" />
      </root>
    </mxGraphModel>
  </diagram>
</mxfile>
